<?xml version="1.0" standalone="no"?>
<!DOCTYPE svg PUBLIC "-//W3C//DTD SVG 20010904//EN"
 "http://www.w3.org/TR/2001/REC-SVG-20010904/DTD/svg10.dtd">
<svg version="1.0" xmlns="http://www.w3.org/2000/svg"
 width="402.000000pt" height="402.000000pt" viewBox="0 0 402.000000 402.000000"
 preserveAspectRatio="xMidYMid meet">
<metadata>
Created by potrace 1.14, written by Peter Selinger 2001-2017
</metadata>
<g transform="translate(0.000000,402.000000) scale(0.100000,-0.100000)"
fill="#000000" stroke="none">
<path d="M1849 4016 c-2 -2 -31 -6 -64 -9 -52 -6 -98 -13 -250 -43 -91 -18
-334 -108 -432 -161 -26 -14 -66 -35 -89 -47 -82 -45 -203 -130 -313 -221 -35
-29 -181 -174 -216 -215 -192 -223 -345 -517 -420 -806 -30 -115 -32 -126 -54
-299 -9 -68 -7 -395 2 -445 3 -14 8 -43 11 -65 37 -252 136 -521 275 -749 125
-207 324 -421 532 -573 255 -188 593 -322 919 -366 100 -14 439 -16 500 -4 14
3 47 8 73 12 175 24 407 98 578 185 98 50 213 117 255 149 12 9 32 23 44 31
76 51 239 201 327 302 200 228 362 539 434 836 25 106 26 107 34 168 3 27 10
76 14 109 10 64 7 394 -3 457 -59 368 -177 665 -371 930 -83 113 -108 142
-225 257 -304 299 -680 483 -1140 556 -45 7 -415 16 -421 11z"/>
</g>
</svg>
